# xmcd CD database file
#
# Track frame offsets:
#	150
#	15802
#	36742
#	42592
#	59306
#	78027
#	92764
#	121802
#	141357
#	156260
#	173802
#	201467
#	213177
#	245095
#	259657
#	276202
#	305074
#
# Disc length: 4365 seconds
#
# Revision: 0
# Processed by: cddbd v1.5.1PL2 Copyright (c) Steve Scherf et al.
# Submitted via: Feurio! 1.68 - http://www.feurio.com
#
DISCID=f4110b11
DTITLE=Free - Songs Of Yesterday
DYEAR=1900
DGENRE=Blues
TTITLE0=Over The Green Hill
TTITLE1=Free Me
TTITLE2=Long Tall Sally
TTITLE3=Woman
TTITLE4=Fire And Water
TTITLE5=All Right Now
TTITLE6=Don't Say You Love Me
TTITLE7=Ride On A Pony
TTITLE8=Soon I Will Be Gone
TTITLE9=Rain
TTITLE10=Molten Gold
TTITLE11=Little Bit Of Love
TTITLE12=Guardian Of The Universe
TTITLE13=Honky Tonk Woman
TTITLE14=Whishing Well
TTITLE15=Heartbreaker
TTITLE16=Seven Angels
EXTD=
EXTT0=
EXTT1=
EXTT2=
EXTT3=
EXTT4=
EXTT5=
EXTT6=
EXTT7=
EXTT8=
EXTT9=
EXTT10=
EXTT11=
EXTT12=
EXTT13=
EXTT14=
EXTT15=
EXTT16=
PLAYORDER=
